<?xml version="1.0" encoding="utf-8"?>
<!-- Generator: Adobe Illustrator 23.0.1, SVG Export Plug-In . SVG Version: 6.00 Build 0)  -->
<svg version="1.1" xmlns="http://www.w3.org/2000/svg" xmlns:xlink="http://www.w3.org/1999/xlink" x="0px" y="0px"
	 viewBox="0 0 280 280" style="enable-background:new 0 0 280 280;" xml:space="preserve">
<style type="text/css">
	.st0{display:none;}
	.st1{fill:#BFE5E9;stroke:#303030;stroke-miterlimit:10;}
	.st2{display:inline;fill:#303030;stroke:#303030;stroke-miterlimit:10;}
	.st3{display:inline;fill:#FFFFFF;stroke:#303030;stroke-linecap:round;stroke-linejoin:round;stroke-miterlimit:10;}
	.st4{display:inline;fill:#EFD6B8;stroke:#303030;stroke-linecap:round;stroke-linejoin:round;stroke-miterlimit:10;}
	.st5{display:inline;fill:#F8B4B8;stroke:#303030;stroke-linecap:round;stroke-linejoin:round;stroke-miterlimit:10;}
	.st6{display:inline;fill:none;stroke:#303030;stroke-linecap:round;stroke-linejoin:round;stroke-miterlimit:10;}
	.st7{display:inline;fill:#FEE7A4;stroke:#303030;stroke-linecap:round;stroke-linejoin:round;stroke-miterlimit:10;}
	.st8{display:inline;fill:none;stroke:#303030;stroke-width:0.5;stroke-linecap:round;stroke-linejoin:round;stroke-miterlimit:10;}
	.st9{display:inline;}
	.st10{fill:#303030;stroke:#303030;stroke-linecap:round;stroke-linejoin:round;stroke-miterlimit:10;}
	.st11{fill:none;stroke:#303030;stroke-linecap:round;stroke-linejoin:round;stroke-miterlimit:10;}
	.st12{fill:#FFFFFF;}
	.st13{display:inline;fill:#D6ECD9;stroke:#303030;stroke-linecap:round;stroke-linejoin:round;stroke-miterlimit:10;}
	.st14{fill:#F8B4B8;stroke:#303030;stroke-linecap:round;stroke-linejoin:round;stroke-miterlimit:10;}
	.st15{fill:#303030;stroke:#303030;stroke-miterlimit:10;}
	.st16{fill:#CDD1EA;stroke:#303030;stroke-linecap:round;stroke-linejoin:round;stroke-miterlimit:10;}
	.st17{fill:#EFD6B8;stroke:#303030;stroke-linecap:round;stroke-linejoin:round;stroke-miterlimit:10;}
	.st18{fill:#FEE7A4;stroke:#303030;stroke-linecap:round;stroke-linejoin:round;stroke-miterlimit:10;}
	.st19{fill:none;stroke:#303030;stroke-width:0.5;stroke-linecap:round;stroke-linejoin:round;stroke-miterlimit:10;}
	.st20{fill:#D5C0A5;}
	.st21{fill:#B7CABB;}
	.st22{opacity:0.47;fill:#F8B4B8;}
	.st23{fill:#AFB4C9;}
</style>
<g id="Sketch" class="st0">
	
		<image style="display:inline;overflow:visible;opacity:0.5;" width="4032" height="3024" xlink:href="20210117_210829.jpg"  transform="matrix(7.883539e-10 6.611001e-02 -6.611001e-02 7.883539e-10 239.9583 6.7222)">
	</image>
</g>
<g id="Purple_BG">
	<circle class="st1" cx="140.5" cy="146.1" r="132.1"/>
</g>
<g id="Avatar" class="st0">
	<path class="st2" d="M78.7,230.9c-3.1-0.4-6.8-1-11.3-1.8c-13.1-2.4-14.8-23.2-15.7-34.3c-3-34.2-3.8-70.5,2.5-104.3
		C58.3,68,67.4,46.7,81.8,29.8C90,20.2,101.1,9.9,114.2,13c1.6,0.4,7.6-4.1,9.1-4.8c7-3.1,14.5-5.4,22.1-6.2
		c40.5-3.8,67.5,38,77.9,74.8c5.5,19.7,7.2,40.3,7.6,60.8c0.4,18.1,0.1,36.2-1.9,54.1c-1.2,10.9-1.9,34.9-15.4,37.4
		c-4.5,0.8-8.2,1.4-11.3,1.8"/>
	<path class="st3" d="M183.3,272.4c0-9.1,0-18.1-0.1-27.2c0-0.9,0-1.9,0.3-2.7c1.4-3.6,11-7.7,14.3-9.9c2.8-1.9,5.6-3.7,8.5-5.6
		l0.5-0.4c-5-17.1-18.9-31.2-37.2-38.6l0,0.1c0.1,0.6,0.1,1.3,0.1,1.9c0,11.4-13,20.7-29.1,20.7s-29.1-9.3-29.1-20.7
		c0-0.7,0-1.4,0.1-2.1l0,0c-18.4,7.3-32.3,21.4-37.3,38.5l0,0c3.1,2.1,6.2,4.1,9.3,6.2c3.2,2.1,12.8,6.3,14.3,9.9
		c0.3,0.9,0.3,1.8,0.3,2.7c-0.1,9.1-0.1,18.1-0.1,27.2"/>
	<path class="st4" d="M201,111.4c-0.1-2.5-0.5-5-0.9-7.5c-1-5.8-2.6-11.5-5.1-16.8c-4.7-10-13.1-17.4-24.2-19
		c-37.3-5.4-55.6-22.8-55.6-22.8S113,62.2,94.5,78.2c-4.6,4-7.9,9.4-10.2,15c-2.6,6.3-4.4,13.2-4.2,20.1c0.2,6.9,2.4,13.8,5.4,20
		c5.4,11.1,14.3,20.3,25.1,26.2c9.1,5,19.5,7.6,30,7.6c12.8,0,25.5-3.9,35.9-11.4c10.1-7.2,17.8-17.4,21.8-29.1
		c1.3-4,2.4-8,2.8-12.2C201,113.4,201.1,112.4,201,111.4z"/>
	<path class="st5" d="M131.8,221.2c0,0-8-4.9-11.7,1.5c-3.7,6.3,3.6,9.7,3.6,9.7"/>
	<path class="st5" d="M149.3,221.2c0,0,8-4.9,11.7,1.5c3.7,6.3-3.6,9.7-3.6,9.7"/>
	<path class="st4" d="M127,183.3c4.1-11.1,0-17.6,0-17.6l0,0c4.4,1,9,1.5,13.5,1.5c4.6,0,9.2-0.5,13.6-1.5l0,0.1c0,0-4.1,6.5,0,17.6
		l0,0.3c5.4,0.9,10.6,2.4,15.5,4.4l0,0.1c0.1,0.6,0.1,1.3,0.1,1.9c0,11.4-13,20.7-29.1,20.7s-29.1-9.3-29.1-20.7
		c0-0.7,0-1.4,0.1-2.1l0,0c4.8-1.9,9.9-3.4,15.2-4.3L127,183.3z"/>
	<path class="st5" d="M156.9,231.8c0.1,0.6,0.2,1.2,0.3,1.8c0.2,1.1,0.3,2.2,0.3,3.4c0,2.1-0.5,4.8-2.6,5.3c-2.3,0.5-5-1.3-6.7-2.8
		c-0.6-0.5-0.8-0.1-1.2,0.3c-0.5,0.5-1,1.1-1.5,1.6c-2.7,2.9-6.8,2-9.6-0.1c-0.8-0.6-1.5-1.4-2.3-2c0,0-0.1-0.1-0.2-0.1
		c-0.1,0-0.1,0-0.2,0.1c-1.4,1-2.8,2.1-4.4,2.7c-1.8,0.7-3.9,0.8-4.8-1.4c-0.7-1.7-0.6-3.7-0.5-5.5c0.3-3.6,0.9-7.1,3.1-9.7
		c3.5-4,8.9-5.5,13.7-5.5c5,0,10.6,1.6,14.1,6C155.8,227.4,156.5,229.7,156.9,231.8z"/>
	<path class="st6" d="M124,232.8"/>
	<path class="st6" d="M137.6,236.2c0,0,3.4,2,5.9,0"/>
	<path class="st6" d="M137.9,231c-5.6-2.3-7.6,1.7-7.6,1.7l-1.6-1.2"/>
	<path class="st6" d="M143.4,231c5.6-2.3,7.6,1.7,7.6,1.7l1.6-1.2"/>
	<path class="st7" d="M128.4,242c0.1,0,0.2-0.1,0.4-0.1c1.6-0.6,3-1.7,4.4-2.7c0,0,0.1-0.1,0.2-0.1c0.1,0,0.1,0,0.2,0.1
		c0.8,0.6,1.5,1.4,2.3,2c2.8,2.1,7,3,9.6,0.1c0.5-0.5,1-1.1,1.5-1.6c0.4-0.4,0.6-0.8,1.2-0.3c1.2,1,2.9,2.2,4.5,2.7l-0.3,0.7
		l-8.6,21.8c0,0-1.3,4.2-3.6,0l-11.8-21.8"/>
	<line class="st8" x1="131.8" y1="240.2" x2="145.1" y2="261.3"/>
	<line class="st8" x1="142.3" y1="243.1" x2="148.3" y2="253"/>
	<line class="st8" x1="149.3" y1="240.3" x2="138.1" y2="260.6"/>
	<line class="st8" x1="139.4" y1="242.9" x2="133.3" y2="251.8"/>
	<path class="st4" d="M98.1,272.4c0-9.1,0-18.1,0.1-27.2c0-0.9,0-1.9-0.3-2.7c-1.4-3.6-11-7.7-14.3-9.9c-3.1-2.1-6.2-4.1-9.3-6.2
		l0,0c-1.3,4.6-2.1,9.3-2.1,14.3v31.7"/>
	<path class="st4" d="M183.3,272.4c0-9.1,0-18.1-0.1-27.2c0-0.9,0-1.9,0.3-2.7c1.4-3.6,11-7.7,14.3-9.9c2.8-1.9,5.6-3.7,8.5-5.6
		l0.5-0.4c1.3,4.5,2,9.3,2,14.2v31.7"/>
	<g class="st9">
		<path class="st10" d="M112.7,102.1c0,0-10-5-6.2-4.3c3.8,0.7,9.5-1.5,9.5-1.5l0,0c1.1-1,2.4-1.5,3.8-1.5c4.2,0,7.5,5.1,7.5,11.3
			s-3.4,11.3-7.5,11.3c-4.2,0-7.5-5.1-7.5-11.3C112.2,104.6,112.4,103.3,112.7,102.1"/>
		<path class="st11" d="M104.8,88.5c0,0,5.9-5.2,16-2.7"/>
		<ellipse class="st12" cx="123.4" cy="100.6" rx="1.5" ry="2.2"/>
		<path class="st10" d="M168.4,102.1c0,0,10-5,6.2-4.3s-9.5-1.5-9.5-1.5l0,0c-1.1-1-2.4-1.5-3.8-1.5c-4.2,0-7.5,5.1-7.5,11.3
			s3.4,11.3,7.5,11.3c4.2,0,7.5-5.1,7.5-11.3C168.9,104.6,168.7,103.3,168.4,102.1"/>
		<path class="st11" d="M176.3,88.5c0,0-5.9-5.2-16-2.7"/>
		<ellipse class="st12" cx="164" cy="100.6" rx="1.5" ry="2.2"/>
	</g>
	<path class="st6" d="M127.5,143.7c0,0,13.3,12.8,26.1,0"/>
</g>
<g id="Avatar_2" class="st0">
	<path class="st2" d="M78.7,230.9c-3.1-0.4-6.8-1-11.3-1.8c-13.1-2.4-14.8-23.2-15.7-34.3c-3-34.2-3.8-70.5,2.5-104.3
		C58.3,68,67.4,46.7,81.8,29.8C90,20.2,101.1,9.9,114.2,13c1.6,0.4,7.6-4.1,9.1-4.8c7-3.1,14.5-5.4,22.1-6.2
		c40.5-3.8,67.5,38,77.9,74.8c5.5,19.7,7.2,40.3,7.6,60.8c0.4,18.1,0.1,36.2-1.9,54.1c-1.2,10.9-1.9,34.9-15.4,37.4
		c-4.5,0.8-8.2,1.4-11.3,1.8"/>
	<path class="st13" d="M183.2,271.1c-13.4,4.6-27.7,7-42.7,7c-14.8,0-29.1-2.4-42.4-7l0,0c0-8.7,0-17.4,0.1-26c0-0.9,0-1.9-0.3-2.7
		c-1.4-3.6-11-7.7-14.3-9.9c-3.1-2.1-6.2-4.1-9.3-6.2l0,0c5-17.1,18.9-31.2,37.3-38.5l0,0c-0.1,0.7-0.1,1.4-0.1,2.1
		c0,11.4,13,20.7,29.1,20.7s29.1-9.3,29.1-20.7c0-0.7,0-1.3-0.1-1.9l0-0.1c18.3,7.4,32.2,21.5,37.2,38.6l-0.5,0.4
		c-2.8,1.9-5.6,3.7-8.5,5.6c-3.2,2.1-12.8,6.3-14.3,9.9c-0.3,0.9-0.3,1.8-0.3,2.7L183.2,271.1z"/>
	<path class="st4" d="M201,111.4c-0.1-2.5-0.5-5-0.9-7.5c-1-5.8-2.6-11.5-5.1-16.8c-4.7-10-13.1-17.4-24.2-19
		c-37.3-5.4-55.6-22.8-55.6-22.8S113,62.2,94.5,78.2c-4.6,4-7.9,9.4-10.2,15c-2.6,6.3-4.4,13.2-4.2,20.1c0.2,6.9,2.4,13.8,5.4,20
		c5.4,11.1,14.3,20.3,25.1,26.2c9.1,5,19.5,7.6,30,7.6c12.8,0,25.5-3.9,35.9-11.4c10.1-7.2,17.8-17.4,21.8-29.1
		c1.3-4,2.4-8,2.8-12.2C201,113.4,201.1,112.4,201,111.4z"/>
	<path class="st5" d="M131.8,221.2c0,0-8-4.9-11.7,1.5c-3.7,6.3,3.6,9.7,3.6,9.7"/>
	<path class="st5" d="M149.3,221.2c0,0,8-4.9,11.7,1.5c3.7,6.3-3.6,9.7-3.6,9.7"/>
	<g class="st9">
		<path class="st10" d="M112.7,102.1c0,0-10-5-6.2-4.3c3.8,0.7,9.5-1.5,9.5-1.5l0,0c1.1-1,2.4-1.5,3.8-1.5c4.2,0,7.5,5.1,7.5,11.3
			s-3.4,11.3-7.5,11.3c-4.2,0-7.5-5.1-7.5-11.3C112.2,104.6,112.4,103.3,112.7,102.1"/>
		<path class="st11" d="M104.8,88.5c0,0,5.9-5.2,16-2.7"/>
		<ellipse class="st12" cx="123.4" cy="100.6" rx="1.5" ry="2.2"/>
		<path class="st10" d="M168.4,102.1c0,0,10-5,6.2-4.3s-9.5-1.5-9.5-1.5l0,0c-1.1-1-2.4-1.5-3.8-1.5c-4.2,0-7.5,5.1-7.5,11.3
			s3.4,11.3,7.5,11.3c4.2,0,7.5-5.1,7.5-11.3C168.9,104.6,168.7,103.3,168.4,102.1"/>
		<path class="st11" d="M176.3,88.5c0,0-5.9-5.2-16-2.7"/>
		<ellipse class="st12" cx="164" cy="100.6" rx="1.5" ry="2.2"/>
	</g>
	<path class="st4" d="M127,183.3c4.1-11.1,0-17.6,0-17.6l0,0c4.4,1,9,1.5,13.5,1.5c4.6,0,9.2-0.5,13.6-1.5l0,0.1c0,0-4.1,6.5,0,17.6
		l0,0.3c5.4,0.9,10.6,2.4,15.5,4.4l0,0.1c0.1,0.6,0.1,1.3,0.1,1.9c0,11.4-13,20.7-29.1,20.7s-29.1-9.3-29.1-20.7
		c0-0.7,0-1.4,0.1-2.1l0,0c4.8-1.9,9.9-3.4,15.2-4.3L127,183.3z"/>
	<path class="st5" d="M156.9,231.8c0.1,0.6,0.2,1.2,0.3,1.8c0.2,1.1,0.3,2.2,0.3,3.4c0,2.1-0.5,4.8-2.6,5.3c-2.3,0.5-5-1.3-6.7-2.8
		c-0.6-0.5-0.8-0.1-1.2,0.3c-0.5,0.5-1,1.1-1.5,1.6c-2.7,2.9-6.8,2-9.6-0.1c-0.8-0.6-1.5-1.4-2.3-2c0,0-0.1-0.1-0.2-0.1
		c-0.1,0-0.1,0-0.2,0.1c-1.4,1-2.8,2.1-4.4,2.7c-1.8,0.7-3.9,0.8-4.8-1.4c-0.7-1.7-0.6-3.7-0.5-5.5c0.3-3.6,0.9-7.1,3.1-9.7
		c3.5-4,8.9-5.5,13.7-5.5c5,0,10.6,1.6,14.1,6C155.8,227.4,156.5,229.7,156.9,231.8z"/>
	<path class="st6" d="M124,232.8"/>
	<path class="st6" d="M137.6,236.2c0,0,3.4,2,5.9,0"/>
	<path class="st6" d="M137.9,231c-5.6-2.3-7.6,1.7-7.6,1.7l-1.6-1.2"/>
	<path class="st6" d="M143.4,231c5.6-2.3,7.6,1.7,7.6,1.7l1.6-1.2"/>
	<path class="st7" d="M128.4,242c0.1,0,0.2-0.1,0.4-0.1c1.6-0.6,3-1.7,4.4-2.7c0,0,0.1-0.1,0.2-0.1c0.1,0,0.1,0,0.2,0.1
		c0.8,0.6,1.5,1.4,2.3,2c2.8,2.1,7,3,9.6,0.1c0.5-0.5,1-1.1,1.5-1.6c0.4-0.4,0.6-0.8,1.2-0.3c1.2,1,2.9,2.2,4.5,2.7l-0.3,0.7
		l-8.6,21.8c0,0-1.3,4.2-3.6,0l-11.8-21.8"/>
	<line class="st8" x1="131.8" y1="240.2" x2="145.1" y2="261.3"/>
	<line class="st8" x1="142.3" y1="243.1" x2="148.3" y2="253"/>
	<line class="st8" x1="149.3" y1="240.3" x2="138.1" y2="260.6"/>
	<line class="st8" x1="139.4" y1="242.9" x2="133.3" y2="251.8"/>
	<path class="st4" d="M98.1,271.2c-9.1-3.1-17.8-7.1-25.9-12l0,0v-18.5c0-4.9,0.7-9.7,2.1-14.3l0,0c3.1,2.1,6.2,4.1,9.3,6.2
		c3.2,2.1,12.8,6.3,14.3,9.9c0.3,0.9,0.3,1.8,0.3,2.7C98.1,253.9,98.1,262.6,98.1,271.2"/>
	<path class="st4" d="M183.2,271.1c9-3.1,17.6-7.1,25.6-11.9l0,0v-18.5c0-4.9-0.7-9.6-2-14.2l-0.5,0.4c-2.8,1.9-5.6,3.7-8.5,5.6
		c-3.2,2.1-12.8,6.3-14.3,9.9c-0.3,0.9-0.3,1.8-0.3,2.7L183.2,271.1z"/>
	<path class="st6" d="M127.5,143.7c0,0,13.3,12.8,26.1,0"/>
</g>
<g id="Layer_6">
	<circle class="st14" cx="140.5" cy="146.1" r="132.1"/>
	<path class="st15" d="M78.7,230.9c-3.1-0.4-6.8-1-11.3-1.8c-13.1-2.4-14.8-23.2-15.7-34.3c-3-34.2-3.8-70.5,2.5-104.3
		C58.3,68,67.4,46.7,81.8,29.8C90,20.2,101.1,9.9,114.2,13c1.6,0.4,7.6-4.1,9.1-4.8c7-3.1,14.5-5.4,22.1-6.2
		c40.5-3.8,67.5,38,77.9,74.8c5.5,19.7,7.2,40.3,7.6,60.8c0.4,18.1,0.1,36.2-1.9,54.1c-1.2,10.9-1.9,34.9-15.4,37.4
		c-4.5,0.8-8.2,1.4-11.3,1.8"/>
	<path class="st16" d="M183.2,271.1c-13.4,4.6-27.7,7-42.7,7c-14.8,0-29.1-2.4-42.4-7l0,0c0-8.7,0-17.4,0.1-26c0-0.9,0-1.9-0.3-2.7
		c-1.4-3.6-11-7.7-14.3-9.9c-3.1-2.1-6.2-4.1-9.3-6.2l0,0c5-17.1,18.9-31.2,37.3-38.5l0,0c-0.1,0.7-0.1,1.4-0.1,2.1
		c0,11.4,13,20.7,29.1,20.7s29.1-9.3,29.1-20.7c0-0.7,0-1.3-0.1-1.9l0-0.1c18.3,7.4,32.2,21.5,37.2,38.6l-0.5,0.4
		c-2.8,1.9-5.6,3.7-8.5,5.6c-3.2,2.1-12.8,6.3-14.3,9.9c-0.3,0.9-0.3,1.8-0.3,2.7L183.2,271.1z"/>
	<path class="st17" d="M201,111.4c-0.1-2.5-0.5-5-0.9-7.5c-1-5.8-2.6-11.5-5.1-16.8c-4.7-10-13.1-17.4-24.2-19
		c-37.3-5.4-55.6-22.8-55.6-22.8S113,62.2,94.5,78.2c-4.6,4-7.9,9.4-10.2,15c-2.6,6.3-4.4,13.2-4.2,20.1c0.2,6.9,2.4,13.8,5.4,20
		c5.4,11.1,14.3,20.3,25.1,26.2c9.1,5,19.5,7.6,30,7.6c12.8,0,25.5-3.9,35.9-11.4c10.1-7.2,17.8-17.4,21.8-29.1
		c1.3-4,2.4-8,2.8-12.2C201,113.4,201.1,112.4,201,111.4z"/>
	<path class="st14" d="M131.8,221.2c0,0-8-4.9-11.7,1.5c-3.7,6.3,3.6,9.7,3.6,9.7"/>
	<path class="st14" d="M149.3,221.2c0,0,8-4.9,11.7,1.5c3.7,6.3-3.6,9.7-3.6,9.7"/>
	<g>
		<path class="st10" d="M112.7,102.1c0,0-10-5-6.2-4.3c3.8,0.7,9.5-1.5,9.5-1.5l0,0c1.1-1,2.4-1.5,3.8-1.5c4.2,0,7.5,5.1,7.5,11.3
			s-3.4,11.3-7.5,11.3c-4.2,0-7.5-5.1-7.5-11.3C112.2,104.6,112.4,103.3,112.7,102.1"/>
		<path class="st11" d="M104.8,88.5c0,0,5.9-5.2,16-2.7"/>
		<ellipse class="st12" cx="123.4" cy="100.6" rx="1.5" ry="2.2"/>
		<path class="st10" d="M168.4,102.1c0,0,10-5,6.2-4.3s-9.5-1.5-9.5-1.5l0,0c-1.1-1-2.4-1.5-3.8-1.5c-4.2,0-7.5,5.1-7.5,11.3
			s3.4,11.3,7.5,11.3c4.2,0,7.5-5.1,7.5-11.3C168.9,104.6,168.7,103.3,168.4,102.1"/>
		<path class="st11" d="M176.3,88.5c0,0-5.9-5.2-16-2.7"/>
		<ellipse class="st12" cx="164" cy="100.6" rx="1.5" ry="2.2"/>
	</g>
	<path class="st17" d="M127,183.3c4.1-11.1,0-17.6,0-17.6l0,0c4.4,1,9,1.5,13.5,1.5c4.6,0,9.2-0.5,13.6-1.5l0,0.1
		c0,0-4.1,6.5,0,17.6l0,0.3c5.4,0.9,10.6,2.4,15.5,4.4l0,0.1c0.1,0.6,0.1,1.3,0.1,1.9c0,11.4-13,20.7-29.1,20.7s-29.1-9.3-29.1-20.7
		c0-0.7,0-1.4,0.1-2.1l0,0c4.8-1.9,9.9-3.4,15.2-4.3L127,183.3z"/>
	<path class="st14" d="M156.9,231.8c0.1,0.6,0.2,1.2,0.3,1.8c0.2,1.1,0.3,2.2,0.3,3.4c0,2.1-0.5,4.8-2.6,5.3c-2.3,0.5-5-1.3-6.7-2.8
		c-0.6-0.5-0.8-0.1-1.2,0.3c-0.5,0.5-1,1.1-1.5,1.6c-2.7,2.9-6.8,2-9.6-0.1c-0.8-0.6-1.5-1.4-2.3-2c0,0-0.1-0.1-0.2-0.1
		c-0.1,0-0.1,0-0.2,0.1c-1.4,1-2.8,2.1-4.4,2.7c-1.8,0.7-3.9,0.8-4.8-1.4c-0.7-1.7-0.6-3.7-0.5-5.5c0.3-3.6,0.9-7.1,3.1-9.7
		c3.5-4,8.9-5.5,13.7-5.5c5,0,10.6,1.6,14.1,6C155.8,227.4,156.5,229.7,156.9,231.8z"/>
	<path class="st11" d="M124,232.8"/>
	<path class="st11" d="M137.6,236.2c0,0,3.4,2,5.9,0"/>
	<path class="st11" d="M137.9,231c-5.6-2.3-7.6,1.7-7.6,1.7l-1.6-1.2"/>
	<path class="st11" d="M143.4,231c5.6-2.3,7.6,1.7,7.6,1.7l1.6-1.2"/>
	<path class="st18" d="M128.4,242c0.1,0,0.2-0.1,0.4-0.1c1.6-0.6,3-1.7,4.4-2.7c0,0,0.1-0.1,0.2-0.1c0.1,0,0.1,0,0.2,0.1
		c0.8,0.6,1.5,1.4,2.3,2c2.8,2.1,7,3,9.6,0.1c0.5-0.5,1-1.1,1.5-1.6c0.4-0.4,0.6-0.8,1.2-0.3c1.2,1,2.9,2.2,4.5,2.7l-0.3,0.7
		l-8.6,21.8c0,0-1.3,4.2-3.6,0l-11.8-21.8"/>
	<line class="st19" x1="131.8" y1="240.2" x2="145.1" y2="261.3"/>
	<line class="st19" x1="142.3" y1="243.1" x2="148.3" y2="253"/>
	<line class="st19" x1="149.3" y1="240.3" x2="138.1" y2="260.6"/>
	<line class="st19" x1="139.4" y1="242.9" x2="133.3" y2="251.8"/>
	<path class="st17" d="M98.1,271.2c-9.1-3.1-17.8-7.1-25.9-12l0,0v-18.5c0-4.9,0.7-9.7,2.1-14.3l0,0c3.1,2.1,6.2,4.1,9.3,6.2
		c3.2,2.1,12.8,6.3,14.3,9.9c0.3,0.9,0.3,1.8,0.3,2.7C98.1,253.9,98.1,262.6,98.1,271.2"/>
	<path class="st17" d="M183.2,271.1c9-3.1,17.6-7.1,25.6-11.9l0,0v-18.5c0-4.9-0.7-9.6-2-14.2l-0.5,0.4c-2.8,1.9-5.6,3.7-8.5,5.6
		c-3.2,2.1-12.8,6.3-14.3,9.9c-0.3,0.9-0.3,1.8-0.3,2.7L183.2,271.1z"/>
	<path class="st11" d="M127.5,143.7c0,0,13.3,12.8,26.1,0"/>
	<path class="st20" d="M199.2,99.4c0.1,0.3,0.3,0.5,0.4,0.8c-3.9-14.9-12.3-29.7-28.9-32.1c-13.4-1.9-26.7-5.7-38.9-11.9
		c-5.8-2.9-10.9-7.6-16.5-10.4c-1.1,2.9-0.6,5.9,1.4,8.3c4.9,5.9,15.4,8.8,22.4,11.4c9.4,3.4,19,5.3,28.7,7.2
		c8.3,1.7,16.4,3.8,22.1,10.6C194,88,196.4,93.9,199.2,99.4z"/>
	<path class="st14" d="M131.8,221.2c0,0-8-4.9-11.7,1.5c-3.7,6.3,3.6,9.7,3.6,9.7"/>
	<path class="st14" d="M149.3,221.2c0,0,8-4.9,11.7,1.5c3.7,6.3-3.6,9.7-3.6,9.7"/>
	<g>
		<path class="st10" d="M112.7,102.1c0,0-10-5-6.2-4.3c3.8,0.7,9.5-1.5,9.5-1.5l0,0c1.1-1,2.4-1.5,3.8-1.5c4.2,0,7.5,5.1,7.5,11.3
			s-3.4,11.3-7.5,11.3c-4.2,0-7.5-5.1-7.5-11.3C112.2,104.6,112.4,103.3,112.7,102.1"/>
		<path class="st11" d="M104.8,88.5c0,0,5.9-5.2,16-2.7"/>
		<ellipse class="st12" cx="123.4" cy="100.6" rx="1.5" ry="2.2"/>
		<path class="st10" d="M168.4,102.1c0,0,10-5,6.2-4.3s-9.5-1.5-9.5-1.5l0,0c-1.1-1-2.4-1.5-3.8-1.5c-4.2,0-7.5,5.1-7.5,11.3
			s3.4,11.3,7.5,11.3c4.2,0,7.5-5.1,7.5-11.3C168.9,104.6,168.7,103.3,168.4,102.1"/>
		<path class="st11" d="M176.3,88.5c0,0-5.9-5.2-16-2.7"/>
		<ellipse class="st12" cx="164" cy="100.6" rx="1.5" ry="2.2"/>
	</g>
	<path class="st14" d="M156.9,231.8c0.1,0.6,0.2,1.2,0.3,1.8c0.2,1.1,0.3,2.2,0.3,3.4c0,2.1-0.5,4.8-2.6,5.3c-2.3,0.5-5-1.3-6.7-2.8
		c-0.6-0.5-0.8-0.1-1.2,0.3c-0.5,0.5-1,1.1-1.5,1.6c-2.7,2.9-6.8,2-9.6-0.1c-0.8-0.6-1.5-1.4-2.3-2c0,0-0.1-0.1-0.2-0.1
		c-0.1,0-0.1,0-0.2,0.1c-1.4,1-2.8,2.1-4.4,2.7c-1.8,0.7-3.9,0.8-4.8-1.4c-0.7-1.7-0.6-3.7-0.5-5.5c0.3-3.6,0.9-7.1,3.1-9.7
		c3.5-4,8.9-5.5,13.7-5.5c5,0,10.6,1.6,14.1,6C155.8,227.4,156.5,229.7,156.9,231.8z"/>
	<path class="st11" d="M124,232.8"/>
	<path class="st11" d="M137.6,236.2c0,0,3.4,2,5.9,0"/>
	<path class="st11" d="M137.9,231c-5.6-2.3-7.6,1.7-7.6,1.7l-1.6-1.2"/>
	<path class="st11" d="M143.4,231c5.6-2.3,7.6,1.7,7.6,1.7l1.6-1.2"/>
	<path class="st18" d="M128.4,242c0.1,0,0.2-0.1,0.4-0.1c1.6-0.6,3-1.7,4.4-2.7c0,0,0.1-0.1,0.2-0.1c0.1,0,0.1,0,0.2,0.1
		c0.8,0.6,1.5,1.4,2.3,2c2.8,2.1,7,3,9.6,0.1c0.5-0.5,1-1.1,1.5-1.6c0.4-0.4,0.6-0.8,1.2-0.3c1.2,1,2.9,2.2,4.5,2.7l-0.3,0.7
		l-8.6,21.8c0,0-1.3,4.2-3.6,0l-11.8-21.8"/>
	<line class="st19" x1="131.8" y1="240.2" x2="145.1" y2="261.3"/>
	<line class="st19" x1="142.3" y1="243.1" x2="148.3" y2="253"/>
	<line class="st19" x1="149.3" y1="240.3" x2="138.1" y2="260.6"/>
	<line class="st19" x1="139.4" y1="242.9" x2="133.3" y2="251.8"/>
	<path class="st17" d="M98.1,271.2c-9.1-3.1-17.8-7.1-25.9-12l0,0v-18.5c0-4.9,0.7-9.7,2.1-14.3l0,0c3.1,2.1,6.2,4.1,9.3,6.2
		c3.2,2.1,12.8,6.3,14.3,9.9c0.3,0.9,0.3,1.8,0.3,2.7C98.1,253.9,98.1,262.6,98.1,271.2"/>
	<path class="st11" d="M127.5,143.7c0,0,13.3,12.8,26.1,0"/>
	<path class="st20" d="M153.3,182.8c-2.8-10.8,0.8-17,0.8-17l0-0.1c-4.5,1.1-9,1.7-13.6,1.7c-4.5,0-9.1-0.6-13.5-1.6l0,0.1
		c0,0,1.2,2.1,1.7,5.9C128.6,171.6,144.7,169.2,153.3,182.8z"/>
	<path class="st11" d="M127,183.3c4.1-11.1,0-17.6,0-17.6l0,0c4.4,1,9,1.5,13.5,1.5c4.6,0,9.2-0.5,13.6-1.5l0,0.1
		c0,0-4.1,6.5,0,17.6l0,0.3c5.4,0.9,10.6,2.4,15.5,4.4l0,0.1c0.1,0.6,0.1,1.3,0.1,1.9c0,11.4-13,20.7-29.1,20.7s-29.1-9.3-29.1-20.7
		c0-0.7,0-1.4,0.1-2.1l0,0c4.8-1.9,9.9-3.4,15.2-4.3L127,183.3z"/>
	<path class="st11" d="M201,111.4c-0.1-2.5-0.5-5-0.9-7.5c-1-5.8-2.6-11.5-5.1-16.8c-4.7-10-13.1-17.4-24.2-19
		c-37.3-5.4-55.6-22.8-55.6-22.8S113,62.2,94.5,78.2c-4.6,4-7.9,9.4-10.2,15c-2.6,6.3-4.4,13.2-4.2,20.1c0.2,6.9,2.4,13.8,5.4,20
		c5.4,11.1,14.3,20.3,25.1,26.2c9.1,5,19.5,7.6,30,7.6c12.8,0,25.5-3.9,35.9-11.4c10.1-7.2,17.8-17.4,21.8-29.1
		c1.3-4,2.4-8,2.8-12.2C201,113.4,201.1,112.4,201,111.4z"/>
	<path class="st21" d="M198,232.3c-3.7-15-11.7-32.4-28.4-44.3l0-0.1c18.3,7.4,32.2,21.5,37.2,38.6"/>
	<path class="st20" d="M198,232.3c4.2,17.1,3,31.2,3,31.2c2.7-1.4,5.3-2.8,7.8-4.4l0,0v-18.5c0-4.9-0.7-9.6-2-14.2l-0.5,0.4l0.5-0.4
		L198,232.3z"/>
	<path class="st11" d="M183.2,271.1c9-3.1,17.6-7.1,25.6-11.9l0,0v-18.5c0-4.9-0.7-9.6-2-14.2l-0.5,0.4c-2.8,1.9-5.6,3.7-8.5,5.6
		c-3.2,2.1-12.8,6.3-14.3,9.9c-0.3,0.9-0.3,1.8-0.3,2.7L183.2,271.1z"/>
	<path class="st11" d="M183.2,271.1c-13.4,4.6-27.7,7-42.7,7c-14.8,0-29.1-2.4-42.4-7l0,0c0-8.7,0-17.4,0.1-26c0-0.9,0-1.9-0.3-2.7
		c-1.4-3.6-11-7.7-14.3-9.9c-3.1-2.1-6.2-4.1-9.3-6.2l0,0c5-17.1,18.9-31.2,37.3-38.5l0,0c-0.1,0.7-0.1,1.4-0.1,2.1
		c0,11.4,13,20.7,29.1,20.7s29.1-9.3,29.1-20.7c0-0.7,0-1.3-0.1-1.9l0-0.1c18.3,7.4,32.2,21.5,37.2,38.6l-0.5,0.4
		c-2.8,1.9-5.6,3.7-8.5,5.6c-3.2,2.1-12.8,6.3-14.3,9.9c-0.3,0.9-0.3,1.8-0.3,2.7L183.2,271.1z"/>
	
		<ellipse transform="matrix(4.501040e-02 -0.999 0.999 4.501040e-02 -31.9408 232.4373)" class="st22" cx="105.6" cy="132.9" rx="7" ry="11.6"/>
	
		<ellipse transform="matrix(0.999 -4.501040e-02 4.501040e-02 0.999 -5.8043 8.0702)" class="st22" cx="176.3" cy="132.9" rx="11.6" ry="7"/>
	<path class="st20" d="M143.9,129c0.8-0.1,2.9-0.3,2,0.6c-5.1,5-9.9,0.1-10,0c-0.4-0.5,1.1-0.7,1.4-0.7c1.3,0,2.4,0.7,3.6,0.9
		c1,0.1,1.9-0.4,2.8-0.7C143.7,129.1,143.8,129,143.9,129z"/>
</g>
<g id="Shading">
	<path class="st20" d="M199.2,99.4c0.1,0.3,0.3,0.5,0.4,0.8c-3.9-14.9-12.3-29.7-28.9-32.1c-13.4-1.9-26.7-5.7-38.9-11.9
		c-5.8-2.9-10.9-7.6-16.5-10.4c-1.1,2.9-0.6,5.9,1.4,8.3c4.9,5.9,15.4,8.8,22.4,11.4c9.4,3.4,19,5.3,28.7,7.2
		c8.3,1.7,16.4,3.8,22.1,10.6C194,88,196.4,93.9,199.2,99.4z"/>
	<path class="st14" d="M131.8,221.2c0,0-8-4.9-11.7,1.5c-3.7,6.3,3.6,9.7,3.6,9.7"/>
	<path class="st14" d="M149.3,221.2c0,0,8-4.9,11.7,1.5c3.7,6.3-3.6,9.7-3.6,9.7"/>
	<g>
		<path class="st10" d="M112.7,102.1c0,0-10-5-6.2-4.3c3.8,0.7,9.5-1.5,9.5-1.5l0,0c1.1-1,2.4-1.5,3.8-1.5c4.2,0,7.5,5.1,7.5,11.3
			s-3.4,11.3-7.5,11.3c-4.2,0-7.5-5.1-7.5-11.3C112.2,104.6,112.4,103.3,112.7,102.1"/>
		<path class="st11" d="M104.8,88.5c0,0,5.9-5.2,16-2.7"/>
		<ellipse class="st12" cx="123.4" cy="100.6" rx="1.5" ry="2.2"/>
		<path class="st10" d="M168.4,102.1c0,0,10-5,6.2-4.3s-9.5-1.5-9.5-1.5l0,0c-1.1-1-2.4-1.5-3.8-1.5c-4.2,0-7.5,5.1-7.5,11.3
			s3.4,11.3,7.5,11.3c4.2,0,7.5-5.1,7.5-11.3C168.9,104.6,168.7,103.3,168.4,102.1"/>
		<path class="st11" d="M176.3,88.5c0,0-5.9-5.2-16-2.7"/>
		<ellipse class="st12" cx="164" cy="100.6" rx="1.5" ry="2.2"/>
	</g>
	<path class="st14" d="M156.9,231.8c0.1,0.6,0.2,1.2,0.3,1.8c0.2,1.1,0.3,2.2,0.3,3.4c0,2.1-0.5,4.8-2.6,5.3c-2.3,0.5-5-1.3-6.7-2.8
		c-0.6-0.5-0.8-0.1-1.2,0.3c-0.5,0.5-1,1.1-1.5,1.6c-2.7,2.9-6.8,2-9.6-0.1c-0.8-0.6-1.5-1.4-2.3-2c0,0-0.1-0.1-0.2-0.1
		c-0.1,0-0.1,0-0.2,0.1c-1.4,1-2.8,2.1-4.4,2.7c-1.8,0.7-3.9,0.8-4.8-1.4c-0.7-1.7-0.6-3.7-0.5-5.5c0.3-3.6,0.9-7.1,3.1-9.7
		c3.5-4,8.9-5.5,13.7-5.5c5,0,10.6,1.6,14.1,6C155.8,227.4,156.5,229.7,156.9,231.8z"/>
	<path class="st11" d="M124,232.8"/>
	<path class="st11" d="M137.6,236.2c0,0,3.4,2,5.9,0"/>
	<path class="st11" d="M137.9,231c-5.6-2.3-7.6,1.7-7.6,1.7l-1.6-1.2"/>
	<path class="st11" d="M143.4,231c5.6-2.3,7.6,1.7,7.6,1.7l1.6-1.2"/>
	<path class="st18" d="M128.4,242c0.1,0,0.2-0.1,0.4-0.1c1.6-0.6,3-1.7,4.4-2.7c0,0,0.1-0.1,0.2-0.1c0.1,0,0.1,0,0.2,0.1
		c0.8,0.6,1.5,1.4,2.3,2c2.8,2.1,7,3,9.6,0.1c0.5-0.5,1-1.1,1.5-1.6c0.4-0.4,0.6-0.8,1.2-0.3c1.2,1,2.9,2.2,4.5,2.7l-0.3,0.7
		l-8.6,21.8c0,0-1.3,4.2-3.6,0l-11.8-21.8"/>
	<line class="st19" x1="131.8" y1="240.2" x2="145.1" y2="261.3"/>
	<line class="st19" x1="142.3" y1="243.1" x2="148.3" y2="253"/>
	<line class="st19" x1="149.3" y1="240.3" x2="138.1" y2="260.6"/>
	<line class="st19" x1="139.4" y1="242.9" x2="133.3" y2="251.8"/>
	<path class="st17" d="M98.1,271.2c-9.1-3.1-17.8-7.1-25.9-12l0,0v-18.5c0-4.9,0.7-9.7,2.1-14.3l0,0c3.1,2.1,6.2,4.1,9.3,6.2
		c3.2,2.1,12.8,6.3,14.3,9.9c0.3,0.9,0.3,1.8,0.3,2.7C98.1,253.9,98.1,262.6,98.1,271.2"/>
	<path class="st11" d="M127.5,143.7c0,0,13.3,12.8,26.1,0"/>
	<path class="st20" d="M153.3,182.8c-2.8-10.8,0.8-17,0.8-17l0-0.1c-4.5,1.1-9,1.7-13.6,1.7c-4.5,0-9.1-0.6-13.5-1.6l0,0.1
		c0,0,1.2,2.1,1.7,5.9C128.6,171.6,144.7,169.2,153.3,182.8z"/>
	<path class="st11" d="M127,183.3c4.1-11.1,0-17.6,0-17.6l0,0c4.4,1,9,1.5,13.5,1.5c4.6,0,9.2-0.5,13.6-1.5l0,0.1
		c0,0-4.1,6.5,0,17.6l0,0.3c5.4,0.9,10.6,2.4,15.5,4.4l0,0.1c0.1,0.6,0.1,1.3,0.1,1.9c0,11.4-13,20.7-29.1,20.7s-29.1-9.3-29.1-20.7
		c0-0.7,0-1.4,0.1-2.1l0,0c4.8-1.9,9.9-3.4,15.2-4.3L127,183.3z"/>
	<path class="st11" d="M201,111.4c-0.1-2.5-0.5-5-0.9-7.5c-1-5.8-2.6-11.5-5.1-16.8c-4.7-10-13.1-17.4-24.2-19
		c-37.3-5.4-55.6-22.8-55.6-22.8S113,62.2,94.5,78.2c-4.6,4-7.9,9.4-10.2,15c-2.6,6.3-4.4,13.2-4.2,20.1c0.2,6.9,2.4,13.8,5.4,20
		c5.4,11.1,14.3,20.3,25.1,26.2c9.1,5,19.5,7.6,30,7.6c12.8,0,25.5-3.9,35.9-11.4c10.1-7.2,17.8-17.4,21.8-29.1
		c1.3-4,2.4-8,2.8-12.2C201,113.4,201.1,112.4,201,111.4z"/>
	<path class="st23" d="M198,232.3c-3.7-15-11.7-32.4-28.4-44.3l0-0.1c18.3,7.4,32.2,21.5,37.2,38.6"/>
	<path class="st20" d="M198,232.3c4.2,17.1,3,31.2,3,31.2c2.7-1.4,5.3-2.8,7.8-4.4l0,0v-18.5c0-4.9-0.7-9.6-2-14.2l-0.5,0.4l0.5-0.4
		L198,232.3z"/>
	<path class="st11" d="M183.2,271.1c9-3.1,17.6-7.1,25.6-11.9l0,0v-18.5c0-4.9-0.7-9.6-2-14.2l-0.5,0.4c-2.8,1.9-5.6,3.7-8.5,5.6
		c-3.2,2.1-12.8,6.3-14.3,9.9c-0.3,0.9-0.3,1.8-0.3,2.7L183.2,271.1z"/>
	<path class="st11" d="M183.2,271.1c-13.4,4.6-27.7,7-42.7,7c-14.8,0-29.1-2.4-42.4-7l0,0c0-8.7,0-17.4,0.1-26c0-0.9,0-1.9-0.3-2.7
		c-1.4-3.6-11-7.7-14.3-9.9c-3.1-2.1-6.2-4.1-9.3-6.2l0,0c5-17.1,18.9-31.2,37.3-38.5l0,0c-0.1,0.7-0.1,1.4-0.1,2.1
		c0,11.4,13,20.7,29.1,20.7s29.1-9.3,29.1-20.7c0-0.7,0-1.3-0.1-1.9l0-0.1c18.3,7.4,32.2,21.5,37.2,38.6l-0.5,0.4
		c-2.8,1.9-5.6,3.7-8.5,5.6c-3.2,2.1-12.8,6.3-14.3,9.9c-0.3,0.9-0.3,1.8-0.3,2.7L183.2,271.1z"/>
	
		<ellipse transform="matrix(4.501040e-02 -0.999 0.999 4.501040e-02 -31.9408 232.4373)" class="st22" cx="105.6" cy="132.9" rx="7" ry="11.6"/>
	
		<ellipse transform="matrix(0.999 -4.501040e-02 4.501040e-02 0.999 -5.8043 8.0702)" class="st22" cx="176.3" cy="132.9" rx="11.6" ry="7"/>
	<path class="st20" d="M143.9,129c0.8-0.1,2.9-0.3,2,0.6c-5.1,5-9.9,0.1-10,0c-0.4-0.5,1.1-0.7,1.4-0.7c1.3,0,2.4,0.7,3.6,0.9
		c1,0.1,1.9-0.4,2.8-0.7C143.7,129.1,143.8,129,143.9,129z"/>
</g>
</svg>
