<?xml version="1.0" encoding="utf-8"?>
<!-- Generator: Adobe Illustrator 23.0.1, SVG Export Plug-In . SVG Version: 6.00 Build 0)  -->
<svg version="1.1" id="Layer_1" xmlns="http://www.w3.org/2000/svg" xmlns:xlink="http://www.w3.org/1999/xlink" x="0px" y="0px"
	 viewBox="0 0 370 215" style="enable-background:new 0 0 370 215;" xml:space="preserve">
<style type="text/css">
	.st0{display:none;}
	.st1{fill:none;stroke:#231F20;stroke-width:10;stroke-linecap:round;stroke-linejoin:round;stroke-miterlimit:10;}
	.st2{fill:#231F20;stroke:#231F20;stroke-width:3;stroke-miterlimit:10;}
</style>
<g class="st0">
</g>
<g>
	<path class="st1" d="M135.7,60.4C146.8,77.3,165.9,75,165.9,75l7.8,25.9L161,127.1l-29.2,10.1l-22.5-10.9l-8.5-28.4l12.7-26.2
		L135.7,60.4z"/>
	<line class="st1" x1="121.4" y1="132.2" x2="150.3" y2="72.5"/>
	<path class="st1" d="M165.9,75c4.2-0.1,10.7-3.3,10.7-3.3L170.4,48l-17.1-8.3L131.8,50c0,0,0.1,5.6,3.8,10.3"/>
	<path class="st1" d="M158.5,42.2c0,0,16.4-36-3.3-31.8"/>
	<path class="st1" d="M165.6,45.6c0,0,17.2-37,27.4-19.6"/>
	<line class="st1" x1="171.6" y1="94" x2="185.6" y2="93"/>
	<line class="st1" x1="168.1" y1="112.5" x2="182.9" y2="119.7"/>
	<line class="st1" x1="156.8" y1="128.6" x2="160" y2="141.7"/>
	<path class="st1" d="M119.3,68.7"/>
	<line class="st1" x1="110.4" y1="56.6" x2="119.3" y2="68.7"/>
	<line class="st1" x1="107.8" y1="83.4" x2="91.7" y2="75.6"/>
	<line class="st1" x1="102" y1="102.1" x2="86.8" y2="106.3"/>
</g>
<g>
	<path class="st2" d="M46,174.8v2.9c0,3.6-1.3,6.7-3.8,9.3c-2.6,2.6-5.7,3.9-9.3,3.9H12.8V139h20.1c3.6,0,6.7,1.3,9.3,3.9
		c2.6,2.6,3.8,5.7,3.8,9.3v2.8c0,3.9-1.5,7.2-4.5,9.9C44.5,167.7,46,171,46,174.8z M39.2,154.9v-2.7c0-1.8-0.6-3.4-1.9-4.7
		c-1.3-1.3-2.8-2-4.6-2H19.3v15.9h13.4c1.8,0,3.3-0.6,4.6-1.9C38.6,158.2,39.2,156.7,39.2,154.9z M39.2,177.7v-2.7
		c0-1.8-0.6-3.4-1.9-4.7c-1.3-1.3-2.8-2-4.6-2H19.4v15.9h13.3c1.8,0,3.3-0.6,4.6-1.9C38.6,181,39.2,179.5,39.2,177.7z"/>
	<path class="st2" d="M76.8,184.2l11-7v-20.7c0-0.9,0.3-1.7,1-2.4c0.6-0.7,1.4-1,2.3-1c0.9,0,1.7,0.3,2.3,1c0.6,0.7,1,1.5,1,2.4
		v31.1c0,0.9-0.3,1.7-1,2.3c-0.7,0.7-1.4,1-2.3,1c-0.9,0-1.7-0.3-2.3-1c-0.7-0.7-1-1.4-1-2.3V185l-5.7,3.7c-2.2,1.4-4.5,2.1-6.8,2.1
		h-3c-2.7,0-5-0.9-6.9-2.8s-3-4.2-3.1-6.9l-1-24.7c-0.1-0.9,0.3-1.6,0.9-2.3s1.5-1,2.4-1c0.9,0,1.6,0.3,2.3,1c0.6,0.7,1,1.4,1,2.3
		l0.9,24.3c0.1,2.3,1.4,3.5,4,3.5H76.8z"/>
	<path class="st2" d="M130.2,204.9H116c-0.9,0-1.7-0.3-2.3-0.9c-0.6-0.6-1-1.4-1-2.3c0-0.9,0.3-1.7,1-2.3c0.6-0.6,1.4-0.9,2.3-0.9
		h14.2c0.9,0,1.7-0.3,2.4-1l2.2-1.9c0.8-0.6,1.1-1.3,1.1-2.3v-10c-3.1,3.1-6.1,4.6-9,4.6h-5c-2.6,0-4.9-0.9-7-2.7l-2.5-2.2
		c-0.8-0.7-1.5-1.7-2.1-3c-0.6-1.3-0.9-2.6-0.9-3.8v-10.9c0-1.5,0.3-3,0.9-4.4c0.6-1.4,1.3-2.4,2.1-3.1l2.7-2.3
		c1.9-1.7,4.2-2.5,6.8-2.5h4.7c2.6,0,4.9,0.9,7,2.7l2.3,1.9l-0.1-1.3c0-0.9,0.3-1.7,1-2.3c0.7-0.7,1.4-1,2.3-1c0.9,0,1.7,0.3,2.4,1
		c0.7,0.6,1,1.4,1,2.3v36.8c0,2.8-1.1,5.2-3.4,7.1l-2.7,2.3c-0.7,0.6-1.6,1.1-2.9,1.6C132.4,204.7,131.2,204.9,130.2,204.9z
		 M126.4,159.7H122c-1,0-1.9,0.4-2.8,1.1l-2,1.7c-0.8,0.7-1.2,1.5-1.2,2.7v10.9c0,0.9,0.4,1.7,1.3,2.5l2.1,1.9
		c0.7,0.6,1.4,0.9,2.1,0.9h5.4c0.8,0,1.6-0.4,2.6-1.2l5.2-4.4c0.8-0.7,1.2-1.6,1.2-2.6v-5c0-1.2-0.5-2.2-1.4-2.9l-5.4-4.6
		C128.5,160,127.6,159.7,126.4,159.7z"/>
</g>
<g>
	<path class="st2" d="M212.3,174.8v2.9c0,3.6-1.3,6.7-3.8,9.3c-2.6,2.6-5.7,3.9-9.3,3.9h-20.1V139h20.1c3.6,0,6.7,1.3,9.3,3.9
		c2.6,2.6,3.8,5.7,3.8,9.3v2.8c0,3.9-1.5,7.2-4.5,9.9C210.8,167.7,212.3,171,212.3,174.8z M205.6,154.9v-2.7c0-1.8-0.6-3.4-1.9-4.7
		c-1.3-1.3-2.8-2-4.6-2h-13.4v15.9H199c1.8,0,3.3-0.6,4.6-1.9C204.9,158.2,205.6,156.7,205.6,154.9z M205.6,177.7v-2.7
		c0-1.8-0.6-3.4-1.9-4.7c-1.3-1.3-2.8-2-4.6-2h-13.3v15.9H199c1.8,0,3.3-0.6,4.6-1.9C204.9,181,205.6,179.5,205.6,177.7z"/>
	<path class="st2" d="M260.7,162.8l-17.7,40c-0.6,1.4-1.6,2.1-3.1,2.1h-9.1c-0.9,0-1.7-0.3-2.3-0.9s-1-1.4-1-2.3
		c0-0.9,0.3-1.7,1-2.3c0.6-0.6,1.4-0.9,2.3-0.9h7l4.5-10.4h-1.6c-1.5,0-2.6-0.8-3.2-2.3l-9.8-22.9v-6.3c0-0.9,0.3-1.7,0.9-2.3
		c0.6-0.6,1.4-1,2.3-1c0.9,0,1.7,0.3,2.4,1c0.7,0.6,1,1.4,1,2.3l0,4.9l8.6,20h2.3l8.9-19.9l0-5c0-0.9,0.3-1.6,1-2.3
		c0.7-0.7,1.5-1,2.4-1c0.9,0,1.7,0.3,2.3,1c0.7,0.7,1,1.4,1,2.3V162.8z"/>
	<path class="st2" d="M298.9,190.9h-6.6c-2.7,0-5-1-7-2.9c-2-1.9-2.9-4.2-2.9-7v-21.3h-3.4c-0.9,0-1.7-0.3-2.3-0.9
		c-0.6-0.6-1-1.4-1-2.3c0-0.9,0.3-1.7,1-2.3c0.6-0.6,1.4-1,2.3-1h3.4v-8c0-0.9,0.3-1.7,1-2.3c0.6-0.6,1.4-1,2.3-1
		c0.9,0,1.6,0.3,2.3,1c0.7,0.7,1,1.4,1,2.3v8h13.2c0.9,0,1.7,0.3,2.3,1c0.7,0.7,1,1.4,1,2.3c0,0.9-0.3,1.7-1,2.3
		c-0.7,0.6-1.4,1-2.3,1H289V181c0,0.9,0.3,1.7,1,2.3c0.7,0.7,1.5,1,2.4,1h6.4c1.7,0,2.9-0.9,3.5-2.8c0.6-1.9,1.7-2.8,3.3-2.8
		c1,0,1.8,0.3,2.4,1c0.6,0.6,0.9,1.4,0.9,2.4c0,2-0.9,4-2.8,5.9C304.2,189.9,301.8,190.9,298.9,190.9z"/>
	<path class="st2" d="M357.2,165.5v7.9c0,0.9-0.3,1.7-1,2.3c-0.7,0.7-1.4,1-2.3,1h-23.2v1.9c0,1.1,0.5,2.1,1.4,2.9l1.9,1.6
		c1,0.8,2,1.2,3,1.2H354c0.9,0,1.7,0.3,2.3,1c0.7,0.6,1,1.4,1,2.3c0,0.9-0.3,1.7-1,2.3c-0.7,0.7-1.4,1-2.3,1h-17.3
		c-1.1,0-2.4-0.2-3.6-0.7c-1.3-0.5-2.2-1-2.8-1.5l-2.9-2.6c-0.9-0.7-1.7-1.7-2.3-3c-0.6-1.3-0.9-2.5-0.9-3.6v-15c0-0.9,0.3-2,1-3.5
		c0.7-1.5,1.5-2.6,2.5-3.4l2.7-2.1c1.8-1.5,3.8-2.2,6-2.2h9.2c2.3,0,4.5,1,6.6,2.9l2.5,2.3C356.4,160,357.2,162.4,357.2,165.5z
		 M330.8,165v5.1h19.9v-4.6c0-1.2-0.4-2.2-1.1-2.8l-1.9-1.7c-1-0.8-1.9-1.2-2.7-1.2h-8.2c-1,0-1.9,0.4-2.8,1.1l-1.9,1.6
		C331.3,163.1,330.8,164,330.8,165z"/>
</g>
</svg>
