<?xml version="1.0" encoding="utf-8"?>
<!-- Generator: Adobe Illustrator 23.0.1, SVG Export Plug-In . SVG Version: 6.00 Build 0)  -->
<svg version="1.1" xmlns="http://www.w3.org/2000/svg" xmlns:xlink="http://www.w3.org/1999/xlink" x="0px" y="0px"
	 viewBox="0 0 393.5 351.7" style="enable-background:new 0 0 393.5 351.7;" xml:space="preserve">
<style type="text/css">
	.st0{display:none;}
	.st1{fill:#A7CF38;}
	.st2{fill:#26C0DA;}
	.st3{fill:#174C56;}
	.st4{font-family:'AmaticSC-Bold';}
	.st5{font-size:72px;}
</style>
<g id="Layer_1" class="st0">
	
		<image style="display:inline;overflow:visible;" width="217" height="180" xlink:href="671595B.jpg"  transform="matrix(0.24 0 0 0.24 -66.8044 158.677)">
	</image>
</g>
<g id="Layer_2">
	<g>
		<path class="st1" d="M346.8,160.3c16.4,70.7-30.5,105.6-30.5,105.6H210.7c-53.5-27.6-60.9-61.1-60.9-61.2
			c-2.7-12.4-1.1-27.1,8.4-36.4c9.9-9.7,29-14.6,40.4-4.8c3.5,3,3.9,9,2.7,13.2c-1.1,4.1-4.3,6.8-8.6,6.8c-4.1-0.1-7.8-3.1-11.9-2.6
			c-6.1,0.7-9.9,6.4-11.6,11.8c-1.7,5.5-0.8,11.4,1.9,16.5c12.1,23.7,46,47.8,72.7,32.8c12.4-7,22.1-18.7,26-32.5
			c1.9-6.8,2.4-13.9,1.1-20.9c-0.7-4-1.8-7.9-3.6-11.5c-1.9-3.8-4.9-6.5-7.2-10c-2.2-3.4-2.9-7.3-2-11.3
			c2.4-10.2,10.2-17.4,17.4-24.3c5.4-5.1,1.7-9.7-4-12.1c-6.3-2.7-13.2-3.5-20-3.4c-3.5,0-6.9,0.9-9.8-1.5
			c-14.8-11.8,6.4-32.7,15.3-40.9c0.5-0.4,6.4-5,6.3-5.5c-1.8-6.9,2-19.8,2-19.8s38.3,1.5,54.8,65.5
			C320.1,113.8,342,139.5,346.8,160.3z"/>
		<g>
			<g>
				<path class="st2" d="M194.5,265.9c0,0-131.5,0-131.5,0c-59.4-109.2,8.1-90.1,8.1-90.1c16.8-71.9,39.4-96,39.4-96
					c-8.9-52.6,6.3-64.7,6.3-64.7c11.7,3.3,19.2,26.4,19.2,26.4s29.7-6.5,38.5,19.8c0,0,26.6,0,26.7,0c1.5,0-0.7,12.2-1,13.3
					c-3.4,11.2-13.2,17.9-24.1,20.7c-4.8,1.2-9.7,1.8-14.7,2.1c-2.7,0.1-6.2-0.9-7.5,1.3c-1.1,1.8-0.7,5.6-0.8,7.6
					c-0.1,12.1,3.7,24.2,8.6,35.2c0.6,1.3,6.5,14.2,7,14c-12.8,4.6-22.6,15.7-26.4,28.8c-9.3,32.1,20.7,58.3,43.5,75.4
					c0.8,0.6,1.6,1.2,2.5,1.8C189.4,262.4,192.9,265.9,194.5,265.9z"/>
				<path class="st2" d="M245.2,186.6c-1.3-3.5-4.2-7.5-8.3-7.8c-4.6-0.3-8.7,3.3-11.3,6.7c-3.8,4.9-8.4,11.2-14.9,12.2
					c-4.3,0.7-8.9-0.6-9.6-5.5c-1.4-9.6,7.6-20.6,14.5-26.3c7.7-6.3,18.5-8.5,27.8-4.4c10,4.4,17.8,14.1,20.3,24.7
					c2.6,11-0.3,22.5-6.1,32c-5.8,9.5-16,19.7-27.3,22c-3.6,0.7-11.2,0.4-13.1-3.7c-2-4.1,7.3-8.6,9.8-10.3
					c8.2-5.5,15.4-13.8,18.3-23.4C246.7,197.8,247.1,191.7,245.2,186.6z"/>
			</g>
		</g>
	</g>
</g>
<g id="Layer_3" class="st0">
	
		<image style="display:inline;overflow:visible;" width="118" height="88" xlink:href="6715959.jpg"  transform="matrix(1 0 0 1 391.5926 29.6866)">
	</image>
</g>
<g id="Layer_4">
	<text transform="matrix(1 0 0 1 19.2165 330.6666)" class="st3 st4 st5">Happy Tails Rescue</text>
</g>
</svg>
