<?xml version="1.0" encoding="utf-8"?>
<!-- Generator: Adobe Illustrator 23.0.1, SVG Export Plug-In . SVG Version: 6.00 Build 0)  -->
<svg version="1.1" id="Layer_1" xmlns="http://www.w3.org/2000/svg" xmlns:xlink="http://www.w3.org/1999/xlink" x="0px" y="0px"
	 viewBox="0 0 35 35" style="enable-background:new 0 0 35 35;" xml:space="preserve">
<style type="text/css">
	.st0{fill:#303030;}
</style>
<path id="surface1" class="st0" d="M9.7,0.1C4.3,0.1,0,4.4,0,9.8v15.6c0,5.3,4.4,9.6,9.7,9.6h15.5c5.4,0,9.7-4.4,9.7-9.8V9.8
	c-0.1-5.4-4.5-9.8-9.9-9.8H9.7z M29,4c1,0,1.9,0.9,1.9,1.9S30.1,7.8,29,7.8c-1,0-1.9-0.9-1.9-1.9S28,4,29,4z M17.4,7.8
	c5.4,0,9.7,4.4,9.7,9.8s-4.4,9.8-9.7,9.8S7.7,23,7.7,17.6S12,7.8,17.4,7.8z M17.4,11.7c-3.2,0-5.8,2.6-5.8,5.8s2.6,5.8,5.8,5.8l0,0
	c3.2,0,5.8-2.6,5.8-5.8S20.6,11.7,17.4,11.7z"/>
</svg>
