<?xml version="1.0" encoding="utf-8"?>
<!-- Generator: Adobe Illustrator 23.0.1, SVG Export Plug-In . SVG Version: 6.00 Build 0)  -->
<svg version="1.1" xmlns="http://www.w3.org/2000/svg" xmlns:xlink="http://www.w3.org/1999/xlink" x="0px" y="0px"
	 viewBox="0 0 35 35" style="enable-background:new 0 0 35 35;" xml:space="preserve">
<style type="text/css">
	.st0{fill:#303030;}
	.st1{display:none;}
	.st2{display:inline;fill:#FFFFFF;}
</style>
<g id="Layer_1">
	<path class="st0" d="M32.2,35c-9.8,0-19.6,0-29.4,0l-0.1-0.1c-0.8-0.2-1.5-0.6-1.9-1.3c-0.3-0.4-0.5-1-0.7-1.4c0-9.8,0-19.6,0-29.4
		l0.1-0.1c0.2-0.8,0.6-1.5,1.3-1.9c0.4-0.3,1-0.5,1.4-0.7c9.8,0,19.6,0,29.4,0l0.1,0.1c0.8,0.2,1.5,0.6,1.9,1.3
		c0.3,0.5,0.5,1,0.7,1.4c0,9.8,0,19.6,0,29.4l-0.1,0.1c-0.2,0.8-0.6,1.5-1.3,1.9C33.2,34.5,32.7,34.8,32.2,35z M29.7,29.7
		c0-0.1,0-0.2,0-0.3c0-3.2,0-6.4,0-9.5c0-0.7-0.1-1.3-0.3-2c-0.5-1.5-1.5-2.7-2.9-3.4c-1.1-0.6-2.3-0.9-3.6-0.7
		c-1.2,0.2-2.3,0.8-3.1,1.7c-0.2,0.2-0.4,0.5-0.7,0.7c0-0.8,0-1.4,0-2.1c-1.8,0-3.5,0-5.2,0c0,5.3,0,10.5,0,15.7c1.7,0,3.5,0,5.2,0
		c0-0.2,0-0.3,0-0.4c0-2.6,0-5.2,0-7.8c0-0.5,0-1,0.1-1.5c0-0.6,0.4-1.1,0.8-1.5c0.6-0.5,1.3-0.8,2-0.7c0.7,0.1,1.2,0.4,1.7,0.8
		c0.6,0.6,0.7,1.4,0.7,2.2c0,2.8,0,5.6,0,8.4c0,0.1,0,0.3,0,0.4C26.3,29.7,28,29.7,29.7,29.7z M5.3,29.7c1.8,0,3.5,0,5.2,0
		c0-5.2,0-10.5,0-15.7c-1.7,0-3.5,0-5.2,0C5.3,19.3,5.3,24.5,5.3,29.7z M4.8,7.9c0,1.8,1.4,3.1,3.1,3.1C9.7,11,11,9.7,11,7.9
		c0-1.7-1.3-3-3-3.1C6.2,4.7,4.7,6.2,4.8,7.9z"/>
</g>
<g id="Layer_2" class="st1">
	<path class="st2" d="M29.7,29.7c-1.8,0-3.5,0-5.2,0c0-0.2,0-0.3,0-0.4c0-2.8,0-5.6,0-8.4c0-0.8-0.1-1.6-0.7-2.2
		c-0.5-0.5-1-0.8-1.7-0.8c-0.8-0.1-1.5,0.2-2,0.7c-0.4,0.4-0.7,0.9-0.8,1.5c0,0.5-0.1,1-0.1,1.5c0,2.6,0,5.2,0,7.8
		c0,0.1,0,0.3,0,0.4c-1.7,0-3.4,0-5.2,0c0-5.2,0-10.4,0-15.7c1.7,0,3.4,0,5.2,0c0,0.7,0,1.3,0,2.1c0.3-0.3,0.5-0.5,0.7-0.7
		c0.8-0.9,1.9-1.5,3.1-1.7c1.3-0.2,2.4,0.1,3.6,0.7c1.4,0.8,2.4,1.9,2.9,3.4c0.2,0.6,0.3,1.3,0.3,2c0,3.2,0,6.4,0,9.5
		C29.7,29.5,29.7,29.6,29.7,29.7z"/>
	<path class="st2" d="M5.3,29.7c0-5.2,0-10.5,0-15.7c1.7,0,3.4,0,5.2,0c0,5.2,0,10.4,0,15.7C8.7,29.7,7,29.7,5.3,29.7z"/>
	<path class="st2" d="M4.8,7.9C4.7,6.2,6.2,4.7,8,4.8c1.7,0.1,3,1.4,3,3.1C11,9.7,9.7,11,7.9,11C6.2,11,4.8,9.7,4.8,7.9z"/>
</g>
</svg>
