<?xml version="1.0" encoding="utf-8"?>
<!-- Generator: Adobe Illustrator 23.0.1, SVG Export Plug-In . SVG Version: 6.00 Build 0)  -->
<svg version="1.1" id="Layer_1" xmlns="http://www.w3.org/2000/svg" xmlns:xlink="http://www.w3.org/1999/xlink" x="0px" y="0px"
	 viewBox="0 0 48 35" style="enable-background:new 0 0 48 35;" xml:space="preserve">
<style type="text/css">
	.st0{fill:#303030;}
</style>
<g>
	<path class="st0" d="M47.9,4.6L34.4,17.5l13.5,12.9c0.1-0.3,0.1-0.5,0.1-0.8V5.4C48,5.1,48,4.8,47.9,4.6z"/>
	<path class="st0" d="M27,20.9L46.8,2c-1-1.2-2.5-2-4.1-2H5.3C3.7,0,2.2,0.8,1.2,2l19.8,18.9C22.7,22.5,25.3,22.5,27,20.9z"/>
	<path class="st0" d="M0.1,4.6C0,4.8,0,5.1,0,5.4v24.2c0,0.3,0,0.5,0.1,0.8l13.5-12.9L0.1,4.6z"/>
	<path class="st0" d="M28.8,22.9c-1.3,1.2-3,1.9-4.8,1.9s-3.5-0.6-4.8-1.9l-3.7-3.5L1.2,33c1,1.2,2.5,2,4.1,2h37.3
		c1.7,0,3.1-0.8,4.1-2L32.5,19.3L28.8,22.9z"/>
</g>
</svg>
