<?xml version="1.0" encoding="utf-8"?>
<!-- Generator: Adobe Illustrator 23.0.1, SVG Export Plug-In . SVG Version: 6.00 Build 0)  -->
<svg version="1.1" id="Layer_1" xmlns="http://www.w3.org/2000/svg" xmlns:xlink="http://www.w3.org/1999/xlink" x="0px" y="0px"
	 viewBox="0 0 1225 125" style="enable-background:new 0 0 1225 125;" xml:space="preserve">
<style type="text/css">
	.st0{fill:#FFFFFF;stroke:#CDD1EA;stroke-width:3;stroke-linecap:round;stroke-linejoin:round;stroke-miterlimit:10;}
	.st1{fill:#FFFFFF;stroke:#303030;stroke-width:3;stroke-miterlimit:10;}
	.st2{fill:#303030;}
	.st3{font-family:'Lato-Bold';}
	.st4{font-size:24px;}
	.st5{font-family:'Lato-Black';}
</style>
<line class="st0" x1="100" y1="51.5" x2="225" y2="51.5"/>
<line class="st0" x1="325" y1="51.3" x2="450" y2="51.3"/>
<line class="st0" x1="550" y1="50.5" x2="675" y2="50.5"/>
<line class="st0" x1="774.3" y1="51" x2="899.3" y2="51"/>
<line class="st0" x1="1000" y1="50.5" x2="1125" y2="50.5"/>
<circle class="st1" cx="50" cy="51" r="37.5"/>
<text transform="matrix(1 0 0 1 43.0401 59.1357)" class="st2 st3 st4">1</text>
<text transform="matrix(1 0 0 1 19.3286 113.5587)" class="st2 st5 st4">Goals</text>
<circle class="st1" cx="275" cy="51" r="37.5"/>
<text transform="matrix(1 0 0 1 268.04 59.1359)" class="st2 st3 st4">2</text>
<text transform="matrix(1 0 0 1 224.469 113.5587)" class="st2 st5 st4">Research</text>
<circle class="st1" cx="500" cy="51" r="37.5"/>
<text transform="matrix(1 0 0 1 493.0401 59.1359)" class="st2 st3 st4">3</text>
<text transform="matrix(1 0 0 1 454.0648 113.5587)" class="st2 st5 st4">Ideation</text>
<circle class="st1" cx="725" cy="51" r="37.5"/>
<text transform="matrix(1 0 0 1 718.0399 59.1359)" class="st2 st3 st4">4</text>
<text transform="matrix(1 0 0 1 659.4566 113.5587)" class="st2 st5 st4">Wireframes</text>
<circle class="st1" cx="950" cy="51" r="37.5"/>
<text transform="matrix(1 0 0 1 943.0402 59.1359)" class="st2 st3 st4">5</text>
<text transform="matrix(1 0 0 1 910.7484 113.5528)" class="st2 st5 st4">Testing</text>
<circle class="st1" cx="1175" cy="48.9" r="37.5"/>
<text transform="matrix(1 0 0 1 1168.0399 59.1357)" class="st2 st3 st4">6</text>
<text transform="matrix(1 0 0 1 1148.049 113.5587)" class="st2 st5 st4">Final</text>
</svg>
